<svg xmlns="http://www.w3.org/2000/svg" viewBox="0 0 32 32">
  <defs>
    <radialGradient id="bg" cx="50%" cy="38%" r="70%">
      <stop offset="0" stop-color="#3b1b68"/>
      <stop offset="0.58" stop-color="#160921"/>
      <stop offset="1" stop-color="#07030d"/>
    </radialGradient>
    <linearGradient id="moon" x1="9" y1="4" x2="23" y2="25" gradientUnits="userSpaceOnUse">
      <stop offset="0" stop-color="#fff7c7"/>
      <stop offset="0.55" stop-color="#ffd978"/>
      <stop offset="1" stop-color="#ff8ed8"/>
    </linearGradient>
    <linearGradient id="spark" x1="6" y1="24" x2="26" y2="8" gradientUnits="userSpaceOnUse">
      <stop offset="0" stop-color="#7dfff4"/>
      <stop offset="1" stop-color="#ff9bea"/>
    </linearGradient>
  </defs>
  <rect width="32" height="32" rx="7" fill="url(#bg)"/>
  <circle cx="16" cy="16" r="13.2" fill="none" stroke="#8b68ff" stroke-opacity="0.32" stroke-width="1"/>
  <circle cx="14.2" cy="13.8" r="8.8" fill="url(#moon)"/>
  <circle cx="18.1" cy="11.2" r="8.5" fill="#160921"/>
  <path d="M20.4 6.2l1.1 3.1 3.2 1-3.2 1.1-1.1 3.1-1.1-3.1-3.2-1.1 3.2-1z" fill="#f9f6ff"/>
  <path d="M7 23.5c5.3-5.6 11-8.4 18.4-8.8" fill="none" stroke="url(#spark)" stroke-width="2" stroke-linecap="round"/>
  <circle cx="9" cy="22" r="1.7" fill="#7dfff4"/>
  <circle cx="23.6" cy="14.7" r="2" fill="#ff9bea"/>
  <path d="M15.6 25.7l.8 2.1 2.2.7-2.2.8-.8 2.1-.8-2.1-2.2-.8 2.2-.7z" fill="#aefdf2"/>
</svg>
